<?xml version="1.0" standalone="no"?>
<!DOCTYPE svg PUBLIC "-//W3C//DTD SVG 20010904//EN"
 "http://www.w3.org/TR/2001/REC-SVG-20010904/DTD/svg10.dtd">
<svg version="1.0" xmlns="http://www.w3.org/2000/svg"
 width="1024.000000pt" height="1024.000000pt" viewBox="0 0 1024.000000 1024.000000"
 preserveAspectRatio="xMidYMid meet">
<metadata>
Created by potrace 1.16, written by Peter Selinger 2001-2019
</metadata>
<g transform="translate(0.000000,1024.000000) scale(0.100000,-0.100000)"
fill="#000000" stroke="none">
<path d="M2657 5115 c-20 -14 -37 -28 -37 -32 0 -3 6 0 14 6 11 10 17 8 26 -6
10 -16 11 -16 6 0 -4 12 0 17 14 17 22 0 36 18 23 31 -5 5 -24 -2 -46 -16z"/>
<path d="M7918 5109 c17 -18 15 -30 -3 -23 -11 5 -15 -1 -15 -21 0 -14 4 -24
8 -21 5 3 9 -1 9 -9 0 -8 -4 -12 -9 -9 -4 3 -8 1 -8 -5 0 -5 6 -11 13 -14 9
-3 8 -9 -3 -21 -14 -15 -16 -14 -17 5 -1 12 -4 23 -6 25 -7 8 -65 -27 -71 -42
-3 -8 -10 -13 -15 -10 -5 3 -12 -1 -15 -10 -3 -9 -11 -12 -18 -8 -9 5 -10 4
-3 -3 6 -6 44 -29 86 -52 l76 -41 -4 44 c-4 40 -2 44 22 48 14 3 28 2 31 -3 2
-4 11 -6 19 -2 17 6 21 43 4 43 -5 0 -8 -4 -5 -8 3 -5 -2 -9 -11 -9 -13 0 -12
4 5 17 12 10 20 19 19 21 -1 3 4 -2 11 -10 10 -13 12 -11 12 12 l0 26 35 -20
c60 -36 38 -14 -35 35 -39 26 -76 44 -82 40 -6 -4 -8 -3 -5 2 3 6 -4 16 -16
23 -18 11 -20 11 -9 0z m-42 -165 c1 -9 0 -13 -4 -10 -3 4 -7 14 -8 22 -1 9 0
13 4 10 3 -4 7 -14 8 -22z m44 -58 c0 -3 -4 -8 -10 -11 -5 -3 -10 -1 -10 4 0
6 5 11 10 11 6 0 10 -2 10 -4z"/>
<path d="M2390 4938 c-61 -41 -96 -70 -97 -83 -2 -16 -1 -15 7 4 6 13 13 21
16 18 3 -3 1 -14 -5 -25 -10 -19 -6 -32 11 -32 5 0 6 5 2 12 -4 7 -3 8 4 4 6
-4 9 -12 6 -19 -2 -7 9 -18 26 -25 16 -8 30 -20 30 -28 0 -19 -25 -6 -69 35
-45 42 -85 24 -44 -21 15 -17 15 -18 -1 -18 -9 0 -14 5 -11 10 3 6 -1 10 -9
10 -9 0 -16 -5 -16 -12 0 -6 -3 -9 -6 -6 -3 4 0 16 6 28 7 13 8 20 2 16 -6 -3
-13 2 -15 11 -4 17 -5 17 -6 0 0 -10 -5 -15 -11 -12 -11 7 -27 -3 -157 -89
-51 -33 -93 -65 -93 -69 0 -5 5 -5 10 -2 6 3 10 2 10 -4 0 -15 -18 -23 -25
-11 -3 5 -12 10 -18 10 -7 0 -4 -5 5 -11 13 -7 15 -15 8 -33 -5 -13 -6 -28 -2
-32 4 -5 -3 -1 -15 9 -16 14 -23 15 -29 6 -5 -8 -3 -10 7 -4 10 6 11 5 4 -3
-6 -6 -20 -9 -33 -5 -21 5 -21 6 -5 19 16 13 15 13 -9 3 -15 -7 -25 -16 -21
-22 3 -6 1 -7 -6 -3 -12 8 -118 -51 -159 -87 -14 -14 -20 -27 -16 -40 4 -12
-2 -26 -15 -38 -12 -11 -21 -16 -21 -12 0 4 -5 0 -11 -10 -6 -9 -14 -15 -19
-12 -4 3 -6 -4 -3 -15 3 -11 10 -20 15 -20 5 0 7 -4 3 -9 -3 -5 -1 -12 4 -15
13 -9 22 36 9 51 -8 10 -5 13 12 13 16 0 20 -4 16 -15 -18 -44 -19 -50 -7 -39
6 6 14 28 16 49 3 21 7 41 10 43 8 9 56 -29 64 -51 5 -12 11 -21 15 -19 3 1
13 2 22 2 14 0 15 -2 3 -17 -8 -9 -9 -14 -4 -11 62 33 275 161 275 165 0 3
-16 -4 -36 -16 -19 -12 -41 -21 -49 -21 -16 0 -30 33 -16 38 18 6 1 21 -17 16
-16 -5 -16 -5 1 9 9 8 17 19 17 26 0 6 6 11 14 11 24 0 30 20 10 34 -22 16
-12 46 16 46 22 0 28 -16 8 -22 -7 -3 -9 -12 -4 -24 7 -18 8 -18 19 3 9 15 16
20 26 13 11 -6 7 -13 -18 -28 -21 -13 -28 -22 -19 -25 7 -3 1 -6 -14 -6 -20
-1 -26 -6 -25 -20 2 -31 61 -26 77 7 8 20 13 23 20 13 6 -11 9 -11 11 1 3 12
9 13 29 6 27 -10 29 -6 -27 -46 -29 -21 71 34 210 115 70 41 127 77 127 80 0
2 -25 -10 -56 -27 l-55 -32 3 33 c2 25 7 33 19 31 14 -2 28 22 29 49 0 14 -33
19 -46 8 -12 -9 -13 -9 -8 4 13 34 42 29 63 -10 6 -13 18 -23 25 -23 8 0 17
10 21 23 5 17 8 18 12 7 3 -8 12 -19 20 -23 12 -7 11 -11 -4 -24 -24 -20 -12
-14 85 42 46 26 81 52 79 59 -3 6 -9 10 -15 9 -6 -2 -14 6 -17 17 -4 11 -10
20 -15 20 -4 0 -6 10 -2 22 3 14 2 19 -6 14 -7 -4 -15 0 -18 9 -5 13 -9 13
-23 3 -14 -12 -14 -11 -3 4 12 15 11 21 -7 44 -16 21 -18 30 -10 40 18 22 9
17 -91 -48z"/>
<path d="M8110 4985 c0 -3 25 -21 55 -41 30 -20 52 -41 49 -46 -3 -5 -8 -7
-11 -4 -4 3 -14 -4 -24 -16 -11 -11 -19 -18 -19 -14 0 3 -11 -1 -24 -9 -16
-11 -26 -13 -31 -6 -3 6 0 11 8 11 10 0 13 7 10 20 -7 26 -16 25 -29 -4 -9
-20 -8 -26 7 -37 25 -18 24 -25 -5 -44 -19 -13 -29 -14 -45 -5 -12 6 -21 9
-21 6 0 -4 191 -112 240 -135 23 -11 23 -11 7 3 -18 14 -17 15 10 30 45 25 69
50 77 80 5 21 11 26 24 21 15 -5 15 -4 2 8 -19 19 -280 188 -280 182z"/>
<path d="M8514 4712 c17 -20 17 -22 2 -28 -9 -3 -16 -12 -16 -20 0 -8 -4 -15
-10 -15 -35 -5 -70 -20 -70 -30 0 -6 4 -8 9 -5 5 4 7 -3 4 -14 -4 -16 -9 -18
-24 -9 -10 5 -19 8 -19 5 0 -3 229 -133 255 -143 6 -3 2 2 -7 10 -19 15 -25
33 -9 22 5 -3 16 4 24 15 8 12 20 20 27 18 7 -2 15 3 18 11 3 8 0 11 -7 7 -16
-11 -13 10 4 24 8 7 22 10 30 6 35 -13 8 8 -107 85 -68 45 -115 72 -104 61z"/>
<path d="M8350 4700 c0 -6 7 -10 15 -10 8 0 15 2 15 4 0 2 -7 6 -15 10 -8 3
-15 1 -15 -4z"/>
<path d="M8320 4636 c0 -3 9 -10 20 -16 11 -6 20 -8 20 -6 0 3 -9 10 -20 16
-11 6 -20 8 -20 6z"/>
<path d="M5670 4520 c-19 -4 -29 -8 -21 -9 10 -1 12 -10 8 -36 -4 -26 -3 -34
6 -28 8 5 8 2 -1 -9 -7 -8 -10 -22 -6 -31 7 -20 34 -30 35 -14 1 7 5 -6 9 -28
5 -29 8 -13 9 63 0 56 0 101 -1 101 -2 -1 -19 -5 -38 -9z"/>
<path d="M4662 4438 c1 -46 3 -66 5 -45 2 20 8 35 13 32 13 -8 20 9 22 49 1
29 5 36 27 39 14 2 5 5 -21 6 l-48 1 2 -82z"/>
<path d="M4905 4513 c11 -3 25 -9 30 -13 17 -13 148 -6 152 8 4 9 -20 12 -99
11 -56 -1 -94 -4 -83 -6z"/>
<path d="M8850 4485 c14 -17 13 -18 -3 -12 -10 4 -16 3 -13 -2 10 -15 -26 -22
-38 -7 -21 27 -50 28 -62 2 -10 -22 -9 -24 17 -19 21 3 31 -1 39 -18 7 -12 8
-19 2 -15 -5 3 -12 -3 -15 -13 -4 -15 12 -28 77 -64 104 -58 158 -83 133 -63
-12 9 -14 16 -7 21 5 3 7 11 4 17 -4 6 3 4 17 -5 13 -9 33 -17 44 -17 18 0 18
2 -7 23 -20 17 -24 27 -16 35 12 12 60 -17 146 -86 43 -34 43 -34 23 -53 -11
-11 -28 -19 -38 -19 -11 0 -1 -11 27 -28 61 -38 290 -156 265 -137 -17 14 -18
17 -5 25 8 6 21 8 28 5 6 -2 12 -3 12 0 0 5 -175 128 -405 285 -99 68 -193
132 -210 144 -27 18 -29 18 -15 1z"/>
<path d="M8687 4429 c7 -7 15 -10 18 -7 3 3 -2 9 -12 12 -14 6 -15 5 -6 -5z"/>
<path d="M8720 4416 c0 -3 9 -10 20 -16 11 -6 20 -8 20 -6 0 3 -9 10 -20 16
-11 6 -20 8 -20 6z"/>
<path d="M1503 4359 c-13 -5 -57 -31 -98 -59 -74 -50 -75 -51 -59 -74 8 -14
22 -27 30 -30 8 -3 14 -12 14 -19 0 -7 11 -20 25 -27 15 -8 23 -20 20 -27 -2
-8 -1 -12 3 -10 134 75 202 121 191 127 -7 5 -14 16 -15 24 -1 9 2 14 7 10 5
-3 9 -1 9 4 0 14 -36 43 -44 35 -4 -4 -9 3 -13 15 -5 20 -10 24 -29 21 -4 0
-10 4 -13 9 -3 6 -15 6 -28 1z"/>
<path d="M1333 4198 c6 -17 -18 -33 -34 -22 -5 3 -8 0 -7 -8 2 -7 -3 -12 -11
-10 -12 3 -12 1 -1 -14 8 -9 16 -12 18 -6 2 6 9 9 16 6 18 -7 37 39 24 57 -8
11 -9 11 -5 -3z"/>
<path d="M1062 4076 c-61 -41 -113 -71 -116 -68 -4 3 -6 -2 -6 -12 0 -9 -4
-15 -9 -12 -8 5 -382 -320 -397 -346 -4 -7 2 -5 13 5 26 22 60 13 41 -11 -7
-9 -8 -13 -3 -10 71 38 393 224 400 230 6 5 -7 2 -28 -7 -21 -9 -43 -13 -49
-9 -7 5 -8 2 -3 -6 5 -9 4 -11 -3 -6 -22 13 -12 26 21 26 20 0 27 3 19 8 -23
15 23 44 75 48 50 3 50 4 -4 -34 -35 -24 3 -4 145 77 123 71 164 98 135 89
-16 -6 -48 38 -45 60 2 12 8 20 13 17 5 -3 6 1 3 9 -7 19 -14 19 -48 6 -25 -9
-48 3 -24 13 8 4 7 6 -3 6 -9 1 -67 -32 -127 -73z m-174 -146 c-7 -10 -14 -17
-17 -15 -4 4 18 35 25 35 2 0 -1 -9 -8 -20z m-3 -120 c-3 -5 -12 -10 -18 -10
-7 0 -6 4 3 10 19 12 23 12 15 0z"/>
<path d="M1283 4103 c0 -7 5 -12 11 -10 15 5 18 24 3 24 -8 0 -14 -6 -14 -14z"/>
<path d="M1324 4054 c-18 -14 -18 -15 4 -4 12 6 22 13 22 15 0 8 -5 6 -26 -11z"/>
<path d="M9494 4041 c7 -11 46 -35 46 -28 0 3 -12 12 -26 22 -15 9 -23 12 -20
6z"/>
<path d="M9530 3976 c0 -3 9 -10 20 -16 11 -6 20 -8 20 -6 0 3 -9 10 -20 16
-11 6 -20 8 -20 6z"/>
<path d="M9624 3951 c4 -6 0 -11 -11 -11 -13 -1 -11 -5 10 -16 15 -8 33 -12
39 -8 7 4 8 3 4 -4 -7 -11 38 -38 57 -34 4 1 7 -2 7 -6 0 -5 12 -14 26 -20 42
-20 20 1 -62 57 -42 29 -73 48 -70 42z"/>
<path d="M5700 3628 c0 -62 -3 -88 -10 -78 -8 12 -10 12 -15 -2 -4 -10 -15
-20 -25 -23 -11 -4 -17 -12 -14 -20 5 -12 -19 -15 -138 -18 l-143 -3 178 -2
177 -2 0 120 c0 66 -2 120 -5 120 -3 0 -5 -42 -5 -92z"/>
<path d="M4662 3568 l-2 -88 108 2 107 2 -80 5 c-46 4 -73 9 -63 13 12 5 15
13 11 24 -5 13 -3 15 8 9 14 -9 -18 34 -36 47 -17 13 -25 9 -18 -9 4 -11 3
-14 -5 -9 -7 4 -13 1 -14 -6 -1 -7 -4 12 -8 42 -6 51 -7 49 -8 -32z"/>
<path d="M435 3559 c-75 -62 -76 -63 -2 -22 38 20 64 39 58 41 -6 2 -9 8 -5
13 10 16 0 10 -51 -32z"/>
<path d="M5268 3483 c6 -2 18 -2 25 0 6 3 1 5 -13 5 -14 0 -19 -2 -12 -5z"/>
</g>
</svg>
